<?xml version="1.0" standalone="no"?>
<!DOCTYPE svg PUBLIC "-//W3C//DTD SVG 20010904//EN"
 "http://www.w3.org/TR/2001/REC-SVG-20010904/DTD/svg10.dtd">
<svg version="1.0" xmlns="http://www.w3.org/2000/svg"
 width="614.000000pt" height="616.000000pt" viewBox="0 0 614.000000 616.000000"
 preserveAspectRatio="xMidYMid meet">
<metadata>
Created by potrace 1.16, written by Peter Selinger 2001-2019
</metadata>
<g transform="translate(0.000000,616.000000) scale(0.100000,-0.100000)"
fill="#000000" stroke="none">
<path d="M2777 5458 c-88 -106 -113 -177 -105 -308 6 -94 45 -183 109 -250 37
-38 45 -42 78 -37 58 10 119 89 162 216 22 62 24 117 8 193 -16 74 -39 115
-102 181 -72 74 -91 75 -150 5z m120 -76 c38 -51 66 -139 65 -208 -2 -67 -34
-151 -76 -200 l-34 -39 -29 28 c-77 73 -106 228 -63 336 24 62 77 134 94 128
6 -2 25 -22 43 -45z"/>
<path d="M1421 5008 c-100 -135 -60 -333 81 -404 47 -24 49 -24 72 -7 58 43
90 181 61 260 -33 92 -122 193 -169 193 -8 0 -28 -19 -45 -42z m116 -86 c55
-73 66 -159 27 -233 -18 -36 -37 -37 -70 -4 -60 60 -80 165 -48 245 21 53 46
51 91 -8z"/>
<path d="M4162 5020 c-23 -17 -42 -37 -42 -45 0 -8 -8 -18 -17 -24 -10 -5 -17
-12 -15 -15 1 -4 -5 -23 -14 -44 -23 -52 -23 -181 -1 -216 9 -14 17 -31 17
-39 0 -7 11 -24 24 -36 l25 -23 46 18 c94 38 162 156 152 264 -6 62 -36 139
-66 169 -29 29 -61 26 -109 -9z m90 -90 c20 -40 22 -99 7 -153 -11 -42 -73
-117 -96 -117 -19 0 -53 76 -53 119 0 54 20 108 58 152 40 47 60 47 84 -1z"/>
<path d="M2816 4834 c-3 -8 -6 -80 -5 -160 0 -104 3 -144 12 -144 9 0 8 -3 -1
-8 -10 -7 -12 -122 -10 -551 l3 -543 -39 6 c-73 12 -144 54 -197 118 -62 75
-86 121 -117 228 -34 119 -51 214 -51 288 -1 72 -13 102 -41 102 -30 0 -35
-41 -22 -187 9 -95 21 -158 42 -224 34 -104 54 -141 120 -218 25 -29 44 -57
43 -62 -2 -5 2 -9 7 -9 6 0 18 -8 28 -17 38 -38 102 -67 195 -87 l27 -6 0
-523 0 -523 -47 6 c-27 3 -67 16 -91 29 -50 25 -122 94 -122 116 0 8 -4 15
-10 15 -5 0 -10 5 -10 10 0 10 -37 69 -51 80 -18 15 -62 107 -89 185 -50 142
-70 224 -77 313 -3 45 -11 82 -16 82 -6 0 -8 3 -4 6 10 11 -22 36 -38 30 -21
-8 -19 -73 4 -187 11 -52 22 -101 25 -109 3 -8 7 -28 9 -45 3 -16 16 -68 31
-115 15 -47 29 -93 32 -103 5 -17 1 -18 -43 -12 -98 14 -272 87 -308 129 -5 7
-37 34 -71 59 -33 26 -71 62 -85 79 -50 68 -67 97 -61 103 4 3 2 9 -3 13 -6 4
-29 45 -52 92 -52 108 -92 226 -127 381 -4 18 -15 29 -32 33 -15 4 -36 18 -46
32 -53 67 -217 100 -362 73 -95 -18 -113 -27 -174 -95 -73 -79 -101 -128 -86
-151 24 -38 136 -91 223 -105 123 -19 277 37 365 134 26 29 47 54 46 56 -1 1
1 8 3 15 3 6 6 -4 6 -23 2 -67 95 -353 120 -370 5 -3 21 -30 36 -60 15 -30 45
-81 66 -112 22 -32 39 -61 40 -65 1 -13 143 -133 211 -179 81 -55 190 -91 299
-99 l86 -7 41 -61 c93 -141 173 -199 313 -230 l51 -12 -1 -118 c-1 -68 2 -117
7 -117 6 0 6 -16 0 -43 -5 -23 -8 -59 -6 -79 l4 -38 -46 -1 c-25 -1 -371 -5
-770 -8 l-725 -6 -3 -22 -3 -23 770 0 771 0 0 -100 c0 -55 0 -103 0 -107 0 -5
-17 -9 -37 -11 -132 -9 -230 -34 -323 -81 -52 -27 -111 -64 -131 -82 l-35 -34
-195 1 c-180 0 -198 2 -249 24 -30 13 -64 31 -75 40 -11 9 -39 28 -62 44 -80
54 -161 147 -155 178 1 5 -2 8 -8 8 -5 0 -10 7 -10 15 0 9 -9 15 -25 15 -32 0
-32 -17 3 -88 34 -71 135 -174 220 -225 35 -20 67 -37 72 -37 5 0 11 -4 14 -9
4 -5 -24 -20 -60 -33 -78 -28 -130 -67 -121 -91 10 -26 36 -21 109 22 36 21
81 41 100 44 18 3 71 13 118 22 60 11 109 14 166 10 l81 -7 -51 -52 c-28 -29
-60 -70 -71 -92 -11 -21 -23 -41 -28 -42 -4 -2 -5 -8 -1 -13 3 -5 0 -9 -5 -9
-15 0 -14 -33 1 -48 21 -21 32 -13 87 69 29 44 87 112 127 152 70 69 179 146
190 134 8 -7 -14 -81 -42 -143 -13 -30 -35 -79 -49 -110 -79 -175 -236 -334
-468 -474 -70 -43 -107 -71 -107 -82 0 -47 113 -2 247 99 43 33 94 69 114 81
41 25 155 146 152 162 0 3 15 24 34 47 80 98 166 287 193 425 l11 57 52 15
c64 18 162 36 196 36 l26 0 -5 -114 -5 -114 -55 -42 c-66 -51 -132 -120 -168
-175 -30 -45 -132 -250 -132 -264 0 -5 -6 -16 -13 -23 -23 -25 -49 -84 -46
-103 5 -23 41 -32 56 -13 17 21 114 216 111 225 -2 9 34 79 57 107 21 28 29
14 33 -62 4 -67 -4 -126 -29 -215 -12 -42 -11 -49 1 -58 31 -19 45 -4 72 76
33 99 36 192 9 284 l-20 63 62 59 c34 32 64 59 67 59 3 0 4 -124 3 -277 -3
-314 -7 -335 -77 -431 -24 -32 -67 -76 -97 -98 -30 -21 -61 -46 -70 -55 -30
-30 -149 -67 -274 -86 -40 -7 -51 -12 -53 -29 -4 -29 23 -35 100 -19 169 34
215 51 318 123 85 59 125 102 157 173 l27 58 35 -60 c56 -94 206 -222 291
-247 89 -27 209 -53 250 -55 39 -2 45 1 48 20 4 25 -5 29 -103 42 -150 22
-254 74 -357 183 -81 85 -106 135 -118 236 -16 143 -18 522 -2 522 5 0 36 -25
69 -55 l61 -55 -15 -63 c-22 -91 -18 -217 9 -302 18 -56 27 -70 43 -70 17 0
20 6 19 40 -1 22 -7 76 -14 120 -8 49 -10 102 -6 139 7 53 9 57 23 43 9 -9 53
-89 98 -179 71 -143 85 -163 106 -163 15 0 25 7 27 18 4 22 -140 301 -202 390
-26 37 -44 67 -40 67 12 0 -101 100 -143 128 l-43 27 0 114 0 114 72 -8 c66
-6 120 -19 191 -47 20 -8 27 -17 27 -37 0 -32 25 -121 46 -168 8 -18 21 -52
30 -75 50 -144 200 -332 363 -457 58 -45 263 -162 276 -158 5 2 11 13 13 25 2
15 -6 25 -30 38 -18 9 -73 44 -123 78 -49 33 -102 67 -117 76 -25 13 -116 108
-222 230 -34 41 -93 140 -82 140 3 0 -7 28 -21 63 -35 87 -62 175 -55 181 8 9
87 -40 134 -82 97 -87 146 -142 188 -210 28 -46 50 -72 60 -70 27 5 22 41 -14
101 -19 31 -31 57 -28 57 4 0 -1 5 -10 11 -10 5 -18 16 -18 23 0 7 -14 26 -30
43 l-31 31 57 8 c135 16 339 -30 460 -106 27 -16 54 -7 54 19 0 18 -57 61 -83
61 -7 1 -35 11 -64 23 l-52 23 72 36 c40 21 82 47 94 60 12 13 47 48 76 79
100 103 138 189 82 189 -19 0 -31 -11 -54 -52 -16 -29 -34 -58 -40 -65 -6 -7
-11 -16 -11 -20 -1 -12 -121 -102 -176 -132 -27 -14 -51 -29 -54 -32 -14 -17
-71 -22 -245 -24 l-190 -1 -60 43 c-33 24 -69 50 -80 58 -56 43 -219 86 -370
98 l-30 2 -3 108 -3 107 776 0 776 0 -3 23 -3 22 -772 3 -773 2 0 203 0 202
58 11 c127 25 217 90 319 232 25 34 50 62 56 62 158 4 266 38 392 123 98 66
235 219 287 322 11 22 28 51 37 65 24 35 62 140 55 151 -3 5 0 9 5 9 6 0 10
10 10 23 0 18 14 81 48 206 3 10 10 5 22 -15 49 -76 156 -147 264 -175 47 -11
147 -1 227 23 51 16 140 80 140 101 0 46 -98 159 -169 197 -135 71 -406 38
-481 -57 -12 -15 -23 -26 -23 -24 -1 2 -12 1 -24 -3 -18 -6 -22 -14 -22 -49 1
-48 -49 -220 -86 -299 -25 -55 -64 -125 -109 -196 -14 -23 -26 -46 -26 -51 0
-6 -8 -15 -17 -20 -10 -6 -14 -11 -9 -11 17 0 -73 -74 -184 -152 -37 -25 -94
-55 -126 -67 -56 -20 -184 -44 -191 -37 -2 2 14 59 36 128 44 135 88 317 93
388 3 44 2 45 -27 45 -26 0 -31 -4 -37 -35 -10 -46 -66 -296 -77 -340 -32
-131 -84 -225 -218 -386 -45 -54 -109 -89 -175 -96 l-48 -6 0 523 0 523 23 6
c12 3 31 6 43 6 39 0 141 60 192 113 85 86 127 149 155 234 46 139 74 412 46
440 -6 6 -19 8 -30 6 -17 -5 -19 -15 -19 -82 0 -123 -40 -313 -85 -401 -27
-51 -106 -156 -138 -183 -36 -29 -96 -56 -143 -63 -41 -6 -44 -5 -44 17 0 13
-1 317 -1 674 0 358 -3 667 -6 688 -4 30 -9 37 -28 37 -12 0 -26 -7 -29 -16z
m-1486 -1289 c49 -8 131 -44 137 -61 2 -5 -22 -36 -53 -67 -87 -87 -187 -112
-332 -83 -26 6 -102 47 -102 56 0 20 100 115 139 132 49 21 126 38 151 32 8
-1 35 -6 60 -9z m3185 -7 c61 -15 134 -58 171 -102 39 -46 35 -56 -32 -87 -85
-38 -198 -35 -294 8 -34 15 -130 106 -130 123 0 17 70 51 132 64 62 14 76 13
153 -6z"/>
<path d="M1951 4701 c-19 -12 -26 -128 -11 -192 15 -65 50 -134 85 -171 14
-16 23 -28 20 -28 -12 0 49 -46 96 -74 53 -30 159 -55 206 -49 41 7 57 49 51
141 -3 53 -14 87 -48 162 -25 52 -54 103 -65 113 -76 67 -285 129 -334 98z
m145 -78 c69 -23 116 -55 156 -105 50 -63 70 -114 76 -191 l5 -69 -49 7 c-59
9 -139 45 -177 80 -63 60 -107 160 -107 248 0 43 2 47 23 47 13 0 46 -7 73
-17z"/>
<path d="M3622 4699 c-69 -13 -190 -79 -229 -124 -33 -38 -60 -91 -55 -107 1
-5 -3 -8 -8 -8 -6 0 -9 -3 -8 -7 1 -5 -4 -36 -11 -71 -15 -70 -10 -168 11
-188 17 -17 137 -3 194 23 46 21 133 83 134 96 0 5 13 19 29 33 17 14 43 56
62 102 27 65 32 89 32 156 0 65 -4 82 -19 93 -20 14 -66 15 -132 2z m78 -102
c0 -98 -71 -232 -150 -282 -36 -23 -134 -55 -167 -55 -18 0 -17 83 2 148 17
56 76 137 127 173 39 28 122 58 161 59 25 0 27 -3 27 -43z"/>
<path d="M1538 4153 c-14 -16 -34 -36 -44 -45 -37 -32 -47 -51 -70 -124 -41
-128 -25 -262 43 -365 25 -39 94 -99 113 -99 6 0 25 14 43 30 18 17 39 32 49
35 14 5 58 82 58 102 0 5 7 21 16 38 23 44 30 185 11 226 -9 19 -19 45 -23 59
-3 14 -15 37 -25 52 -11 14 -19 31 -19 37 0 6 -5 11 -11 11 -6 0 -29 16 -50
35 -47 42 -58 43 -91 8z m83 -95 c44 -60 61 -110 66 -193 4 -65 1 -90 -16
-133 -26 -64 -70 -122 -93 -122 -23 0 -71 72 -93 139 -32 98 -2 250 64 319 29
30 43 28 72 -10z"/>
<path d="M4058 4135 c-21 -19 -49 -53 -63 -75 -27 -42 -65 -171 -65 -219 0
-43 25 -135 52 -188 22 -45 111 -133 134 -133 6 0 28 14 49 30 21 17 41 30 44
30 4 0 21 28 38 63 35 69 63 166 63 220 0 39 -32 146 -58 195 -23 42 -108 112
-136 112 -11 0 -38 -16 -58 -35z m103 -82 c51 -69 62 -102 62 -206 1 -83 -1
-97 -27 -144 -16 -28 -41 -63 -56 -78 l-27 -26 -36 42 c-52 60 -70 123 -65
224 3 59 10 94 27 126 27 51 69 109 79 109 5 0 24 -21 43 -47z"/>
<path d="M2551 4128 c-70 -64 -88 -220 -37 -310 15 -25 33 -52 41 -58 8 -7 15
-19 15 -26 0 -8 5 -14 10 -14 6 0 20 -9 32 -20 44 -41 84 -20 126 64 51 102
35 227 -42 314 -17 19 -104 72 -119 72 -2 0 -14 -10 -26 -22z m119 -138 c29
-57 34 -102 16 -164 -9 -30 -21 -58 -26 -61 -18 -11 -61 28 -86 78 -33 65 -35
137 -5 196 l23 43 30 -28 c16 -16 38 -45 48 -64z"/>
<path d="M3056 4115 c-62 -44 -81 -72 -107 -158 -24 -76 -21 -110 16 -191 46
-101 70 -108 145 -39 95 85 127 180 100 293 -13 52 -69 130 -94 130 -6 0 -33
-16 -60 -35z m74 -77 c43 -96 8 -226 -72 -269 -45 -24 -71 138 -34 211 16 31
74 100 83 100 2 0 13 -19 23 -42z"/>
<path d="M1846 3584 c-12 -32 -5 -115 14 -168 26 -67 102 -145 182 -187 46
-23 72 -29 125 -30 122 -2 129 3 120 88 -12 115 -94 235 -197 286 -47 23 -66
27 -146 27 -75 0 -93 -3 -98 -16z m262 -117 c12 -13 19 -26 16 -30 -3 -3 1
-16 10 -29 13 -18 16 -19 16 -5 0 9 -5 17 -12 17 -6 0 -8 3 -5 6 10 11 38 -18
33 -32 -3 -8 -1 -13 5 -11 11 2 39 -66 39 -95 0 -14 -8 -18 -40 -16 -22 1 -40
5 -40 9 0 5 -7 6 -15 2 -12 -4 -11 4 6 33 31 53 32 54 25 14 -5 -33 -5 -33 5
-7 6 15 15 27 20 27 5 0 9 5 9 11 0 5 -4 7 -10 4 -5 -3 -21 5 -35 19 -26 26
-31 26 -16 -2 7 -12 3 -28 -12 -52 -26 -41 -48 -50 -43 -17 1 12 5 20 7 17 2
-2 14 4 26 15 12 10 20 21 18 23 -3 3 -11 -1 -20 -8 -12 -10 -15 -10 -15 4 0
9 5 16 10 16 12 0 14 76 3 83 -5 3 -8 -9 -9 -26 -1 -58 -14 -84 -39 -84 -21 0
-22 1 -9 14 20 21 17 43 -6 43 -12 0 -17 -5 -14 -13 2 -7 -5 -22 -17 -33 -13
-10 -19 -14 -16 -7 4 6 -3 19 -15 28 -15 12 -19 19 -10 22 18 7 15 21 -4 19
-9 0 -20 10 -25 24 -9 25 -9 25 9 4 10 -11 25 -20 35 -18 14 2 15 -1 6 -18 -6
-11 -8 -22 -5 -25 8 -8 27 7 21 17 -6 9 21 40 36 40 5 0 9 -4 9 -10 0 -5 6
-10 13 -10 6 1 1 10 -12 20 -25 22 -21 26 10 10 18 -10 24 -4 20 23 -2 14 16
7 37 -16z"/>
<path d="M3612 3574 c-58 -29 -131 -104 -156 -161 -9 -21 -22 -46 -27 -56 -16
-29 -23 -112 -11 -134 22 -41 171 -36 250 8 51 29 104 70 98 76 -3 3 6 14 20
25 28 23 57 74 49 88 -3 5 -1 11 3 14 13 8 14 123 2 146 -9 18 -21 20 -93 20
-69 0 -92 -4 -135 -26z m68 -74 c9 -6 11 -13 5 -17 -13 -10 -17 -33 -6 -33 15
0 21 -30 11 -51 -7 -13 -7 -25 0 -38 7 -14 7 -22 -2 -27 -6 -4 -8 -3 -5 3 4 6
1 16 -7 22 -12 10 -14 6 -12 -19 2 -30 -21 -49 -44 -35 -5 3 -10 0 -10 -8 0
-13 -56 -27 -106 -27 -22 0 -16 40 15 99 27 54 60 84 47 44 -3 -10 1 -28 9
-39 14 -18 14 -18 15 4 0 15 -4 21 -12 16 -8 -5 -9 -2 -5 11 4 9 2 25 -5 33
-11 13 -10 15 4 9 12 -4 15 -2 12 8 -4 9 8 21 33 34 45 24 44 23 63 11z"/>
<path d="M2563 3094 c-24 -10 -84 -103 -104 -161 -40 -113 -2 -261 88 -344 38
-35 49 -40 75 -35 33 7 42 15 94 93 46 69 59 133 44 215 -24 132 -132 259
-197 232z m108 -167 c42 -82 35 -172 -21 -260 -26 -42 -33 -46 -50 -37 -32 17
-79 95 -91 150 -15 71 -4 127 38 194 l35 58 35 -34 c19 -18 44 -50 54 -71z"/>
<path d="M3058 3073 c-65 -50 -118 -173 -118 -275 0 -69 43 -167 95 -218 28
-27 38 -31 64 -25 41 9 94 64 129 134 23 48 27 68 27 146 0 99 -16 145 -78
217 -44 51 -73 56 -119 21z m112 -131 c18 -36 24 -62 23 -113 -1 -72 -20 -118
-73 -179 l-30 -35 -31 35 c-39 45 -63 129 -56 192 7 58 27 101 68 151 l31 38
23 -21 c12 -11 32 -42 45 -68z"/>
<path d="M1481 2793 c-53 -23 -135 -111 -154 -167 -23 -67 -22 -153 4 -221 24
-65 49 -77 108 -50 39 17 91 57 91 70 0 4 9 19 20 34 53 76 63 203 23 287 -26
53 -49 65 -92 47z m47 -119 c25 -73 -7 -167 -75 -223 -21 -17 -41 -31 -44 -31
-13 0 -29 62 -29 109 0 25 9 64 19 86 19 44 86 108 104 102 7 -2 18 -21 25
-43z"/>
<path d="M4141 2787 c-19 -23 -42 -89 -37 -103 3 -8 1 -14 -4 -14 -15 0 -12
-70 6 -131 25 -85 71 -140 150 -179 67 -33 77 -29 104 48 30 84 32 171 6 227
-11 22 -18 43 -18 48 1 4 -2 7 -8 7 -5 0 -10 5 -10 12 0 15 -69 78 -98 89 -34
13 -78 11 -91 -4z m95 -92 c40 -31 84 -117 84 -165 0 -52 -19 -100 -39 -100
-31 0 -93 75 -107 129 -7 27 -11 58 -9 68 2 10 7 35 10 56 7 44 17 46 61 12z"/>
<path d="M2171 2529 c-81 -14 -138 -46 -218 -125 -82 -80 -109 -132 -119 -227
-8 -77 0 -86 92 -97 137 -17 268 29 345 121 72 87 85 110 102 184 22 93 15
119 -31 133 -61 17 -114 21 -171 11z m121 -83 l27 -6 -16 -53 c-46 -155 -190
-250 -351 -231 -60 7 -60 6 -12 109 49 106 127 166 241 183 54 8 62 8 111 -2z"/>
<path d="M3388 2526 c-32 -7 -60 -15 -63 -18 -7 -7 -9 -54 -5 -113 6 -100 108
-224 233 -284 62 -30 74 -32 160 -30 50 1 104 6 120 11 24 9 27 15 27 56 0 96
-36 184 -101 250 -108 110 -239 156 -371 128z m133 -80 c113 -6 241 -127 264
-248 l7 -36 -49 -6 c-135 -18 -273 57 -329 180 -26 56 -42 120 -28 112 5 -3
18 -2 29 2 11 5 29 6 40 4 11 -3 41 -6 66 -8z"/>
<path d="M3780 1135 c-16 -19 0 -78 36 -136 13 -20 20 -40 17 -43 -4 -3 -1 -6
5 -6 7 0 12 -7 12 -15 0 -16 137 -165 152 -165 5 0 37 -21 71 -47 90 -69 116
-86 188 -121 62 -30 80 -36 107 -33 15 1 16 41 1 41 -16 0 -172 95 -265 162
-121 86 -260 250 -257 301 1 9 -3 17 -8 17 -6 0 -7 5 -4 10 3 6 1 10 -6 10 -7
0 -10 3 -6 6 6 6 -16 34 -26 34 -3 0 -10 -7 -17 -15z"/>
<path d="M1873 1128 c-5 -7 -16 -29 -23 -48 -7 -19 -19 -42 -26 -50 -6 -8 -19
-31 -27 -51 -21 -50 -137 -170 -191 -199 -26 -13 -46 -27 -46 -31 0 -9 -143
-95 -207 -125 -46 -20 -56 -48 -23 -59 31 -10 127 36 225 106 50 36 109 78
133 93 43 27 69 50 87 78 6 9 29 40 51 70 88 114 124 219 78 226 -11 2 -25 -3
-31 -10z"/>
</g>
</svg>
