<?xml version="1.0" standalone="no"?>
<!DOCTYPE svg PUBLIC "-//W3C//DTD SVG 20010904//EN"
 "http://www.w3.org/TR/2001/REC-SVG-20010904/DTD/svg10.dtd">
<svg version="1.0" xmlns="http://www.w3.org/2000/svg"
 width="512.000000pt" height="512.000000pt" viewBox="0 0 512.000000 512.000000"
 preserveAspectRatio="xMidYMid meet">
<metadata>
Created by potrace 1.16, written by Peter Selinger 2001-2019
</metadata>
<g transform="translate(0.000000,512.000000) scale(0.100000,-0.100000)"
fill="#000000" stroke="none">
<path d="M2300 4805 c-837 -94 -1558 -659 -1858 -1455 -189 -501 -189 -1079 0
-1580 277 -737 922 -1283 1688 -1429 410 -78 839 -43 1220 101 612 230 1098
716 1328 1328 189 501 189 1079 0 1580 -230 612 -716 1098 -1328 1328 -326
123 -691 167 -1050 127z m444 -1130 c191 -51 336 -147 448 -294 220 -291 214
-691 -15 -976 -97 -121 -222 -206 -382 -261 -74 -26 -92 -28 -235 -28 -143 0
-161 2 -235 28 -343 118 -558 411 -557 761 1 389 270 706 667 784 68 14 237 6
309 -14z m-544 -1778 c145 -60 200 -71 355 -71 159 -1 193 6 370 72 110 40
126 44 190 40 79 -5 129 -25 254 -100 208 -124 404 -315 534 -521 21 -31 37
-61 37 -66 0 -17 -164 -168 -267 -246 -667 -501 -1559 -501 -2226 0 -103 78
-267 229 -267 246 0 5 16 35 37 66 150 238 379 447 633 578 109 57 216 57 350
2z"/>
</g>
</svg>
